<mxfile host="65bd71144e">
    <diagram name="3 tier architecture with VPC" id="2lRB2ICcqrJ46BQo-VkJ">
        <mxGraphModel dx="1837" dy="1825" grid="1" gridSize="10" guides="1" tooltips="1" connect="1" arrows="1" fold="1" page="0" pageScale="1" pageWidth="850" pageHeight="1100" math="0" shadow="0">
            <root>
                <mxCell id="0"/>
                <mxCell id="1" parent="0"/>
                <mxCell id="chwYsZg3FPka-LLPWCqs-28" value="" style="rounded=1;whiteSpace=wrap;html=1;fillColor=default;strokeWidth=2;perimeterSpacing=0;strokeColor=#B3B3B3;" parent="1" vertex="1">
                    <mxGeometry x="-260" y="-570" width="1450" height="1150" as="geometry"/>
                </mxCell>
                <mxCell id="chwYsZg3FPka-LLPWCqs-22" value="" style="rounded=1;whiteSpace=wrap;html=1;fillColor=none;dashed=1;strokeWidth=2;perimeterSpacing=0;dashPattern=8 8;strokeColor=#B3B3B3;" parent="1" vertex="1">
                    <mxGeometry x="-160" y="-840" width="410" height="1600" as="geometry"/>
                </mxCell>
                <mxCell id="chwYsZg3FPka-LLPWCqs-1" value="" style="rounded=1;whiteSpace=wrap;html=1;" parent="1" vertex="1">
                    <mxGeometry x="-80" y="-120" width="250" height="250" as="geometry"/>
                </mxCell>
                <mxCell id="chwYsZg3FPka-LLPWCqs-2" value="" style="sketch=0;points=[[0,0,0],[0.25,0,0],[0.5,0,0],[0.75,0,0],[1,0,0],[0,1,0],[0.25,1,0],[0.5,1,0],[0.75,1,0],[1,1,0],[0,0.25,0],[0,0.5,0],[0,0.75,0],[1,0.25,0],[1,0.5,0],[1,0.75,0]];outlineConnect=0;fontColor=#232F3E;gradientColor=#F78E04;gradientDirection=north;fillColor=#D05C17;strokeColor=#ffffff;dashed=0;verticalLabelPosition=bottom;verticalAlign=top;align=center;html=1;fontSize=12;fontStyle=0;aspect=fixed;shape=mxgraph.aws4.resourceIcon;resIcon=mxgraph.aws4.ec2;" parent="1" vertex="1">
                    <mxGeometry x="-5" y="-50" width="100" height="100" as="geometry"/>
                </mxCell>
                <mxCell id="chwYsZg3FPka-LLPWCqs-3" value="EC2 Instances" style="text;strokeColor=none;align=center;fillColor=none;html=1;verticalAlign=middle;whiteSpace=wrap;rounded=0;fontFamily=Poppins;fontSource=https%3A%2F%2Ffonts.googleapis.com%2Fcss%3Ffamily%3DPoppins;fontSize=16;fontColor=#3399FF;fontStyle=1" parent="1" vertex="1">
                    <mxGeometry x="-15" y="50" width="120" height="30" as="geometry"/>
                </mxCell>
                <mxCell id="chwYsZg3FPka-LLPWCqs-5" value="Private Subnet" style="text;strokeColor=none;align=center;fillColor=none;html=1;verticalAlign=middle;whiteSpace=wrap;rounded=0;fontFamily=Poppins;fontSource=https%3A%2F%2Ffonts.googleapis.com%2Fcss%3Ffamily%3DPoppins;fontSize=16;fontColor=#33FF33;fontStyle=1" parent="1" vertex="1">
                    <mxGeometry x="50" y="-160" width="120" height="30" as="geometry"/>
                </mxCell>
                <mxCell id="chwYsZg3FPka-LLPWCqs-6" value="&lt;p style=&quot;line-height: 160%;&quot;&gt;&lt;b&gt;Dedicated to running backend microservices&lt;/b&gt;&lt;/p&gt;" style="text;strokeColor=none;align=left;fillColor=default;html=1;verticalAlign=middle;whiteSpace=wrap;rounded=0;fontFamily=Montserrat Medium;fontSource=https%3A%2F%2Ffonts.googleapis.com%2Fcss%3Ffamily%3DMontserrat%2BMedium;fontSize=16;" parent="1" vertex="1">
                    <mxGeometry x="-240" y="-25" width="230" height="50" as="geometry"/>
                </mxCell>
                <mxCell id="chwYsZg3FPka-LLPWCqs-7" value="" style="rounded=1;whiteSpace=wrap;html=1;" parent="1" vertex="1">
                    <mxGeometry x="-80" y="240" width="250" height="250" as="geometry"/>
                </mxCell>
                <mxCell id="chwYsZg3FPka-LLPWCqs-9" value="AWS RDS" style="text;strokeColor=none;align=center;fillColor=none;html=1;verticalAlign=middle;whiteSpace=wrap;rounded=0;fontFamily=Poppins;fontSource=https%3A%2F%2Ffonts.googleapis.com%2Fcss%3Ffamily%3DPoppins;fontSize=16;fontColor=#3399FF;fontStyle=1" parent="1" vertex="1">
                    <mxGeometry x="-15" y="410" width="120" height="30" as="geometry"/>
                </mxCell>
                <mxCell id="chwYsZg3FPka-LLPWCqs-10" value="Private Subnet" style="text;strokeColor=none;align=center;fillColor=none;html=1;verticalAlign=middle;whiteSpace=wrap;rounded=0;fontFamily=Poppins;fontSource=https%3A%2F%2Ffonts.googleapis.com%2Fcss%3Ffamily%3DPoppins;fontSize=16;fontColor=#33FF33;fontStyle=1" parent="1" vertex="1">
                    <mxGeometry x="-15" y="500" width="120" height="30" as="geometry"/>
                </mxCell>
                <mxCell id="chwYsZg3FPka-LLPWCqs-11" value="&lt;p style=&quot;line-height: 160%;&quot;&gt;&lt;b&gt;&lt;font color=&quot;#ffffff&quot;&gt;Dedicated to running databases&lt;/font&gt;&lt;/b&gt; like AWS RDS, Elasticache, ElasticSearch etc.&lt;/p&gt;" style="text;strokeColor=none;align=left;fillColor=default;html=1;verticalAlign=middle;whiteSpace=wrap;rounded=0;fontFamily=Montserrat Medium;fontSource=https%3A%2F%2Ffonts.googleapis.com%2Fcss%3Ffamily%3DMontserrat%2BMedium;fontSize=16;" parent="1" vertex="1">
                    <mxGeometry x="-245" y="312.5" width="230" height="105" as="geometry"/>
                </mxCell>
                <mxCell id="chwYsZg3FPka-LLPWCqs-12" value="" style="rounded=1;whiteSpace=wrap;html=1;" parent="1" vertex="1">
                    <mxGeometry x="-80" y="-490" width="250" height="250" as="geometry"/>
                </mxCell>
                <mxCell id="chwYsZg3FPka-LLPWCqs-14" value="NAT Gateway" style="text;strokeColor=none;align=center;fillColor=none;html=1;verticalAlign=middle;whiteSpace=wrap;rounded=0;fontFamily=Poppins;fontSource=https%3A%2F%2Ffonts.googleapis.com%2Fcss%3Ffamily%3DPoppins;fontSize=16;fontColor=#3399FF;fontStyle=1" parent="1" vertex="1">
                    <mxGeometry x="-15" y="-320" width="120" height="30" as="geometry"/>
                </mxCell>
                <mxCell id="chwYsZg3FPka-LLPWCqs-15" value="Public Subnet" style="text;strokeColor=none;align=center;fillColor=none;html=1;verticalAlign=middle;whiteSpace=wrap;rounded=0;fontFamily=Poppins;fontSource=https%3A%2F%2Ffonts.googleapis.com%2Fcss%3Ffamily%3DPoppins;fontSize=16;fontColor=#33FF33;fontStyle=1" parent="1" vertex="1">
                    <mxGeometry x="-80" y="-530" width="120" height="30" as="geometry"/>
                </mxCell>
                <mxCell id="chwYsZg3FPka-LLPWCqs-16" value="" style="sketch=0;outlineConnect=0;fontColor=#232F3E;gradientColor=none;fillColor=#4D27AA;strokeColor=none;dashed=0;verticalLabelPosition=bottom;verticalAlign=top;align=center;html=1;fontSize=12;fontStyle=0;aspect=fixed;pointerEvents=1;shape=mxgraph.aws4.nat_gateway;" parent="1" vertex="1">
                    <mxGeometry x="-5" y="-420" width="100" height="100" as="geometry"/>
                </mxCell>
                <mxCell id="chwYsZg3FPka-LLPWCqs-18" value="" style="endArrow=classic;html=1;rounded=0;" parent="1" edge="1">
                    <mxGeometry width="50" height="50" relative="1" as="geometry">
                        <mxPoint x="44.5" y="80" as="sourcePoint"/>
                        <mxPoint x="45" y="300" as="targetPoint"/>
                    </mxGeometry>
                </mxCell>
                <mxCell id="chwYsZg3FPka-LLPWCqs-19" value="" style="sketch=0;points=[[0,0,0],[0.25,0,0],[0.5,0,0],[0.75,0,0],[1,0,0],[0,1,0],[0.25,1,0],[0.5,1,0],[0.75,1,0],[1,1,0],[0,0.25,0],[0,0.5,0],[0,0.75,0],[1,0.25,0],[1,0.5,0],[1,0.75,0]];outlineConnect=0;fontColor=#232F3E;gradientColor=#4D72F3;gradientDirection=north;fillColor=#3334B9;strokeColor=#ffffff;dashed=0;verticalLabelPosition=bottom;verticalAlign=top;align=center;html=1;fontSize=12;fontStyle=0;aspect=fixed;shape=mxgraph.aws4.resourceIcon;resIcon=mxgraph.aws4.rds;" parent="1" vertex="1">
                    <mxGeometry x="-5" y="307.5" width="100" height="100" as="geometry"/>
                </mxCell>
                <mxCell id="chwYsZg3FPka-LLPWCqs-20" value="" style="endArrow=classic;html=1;rounded=0;" parent="1" edge="1">
                    <mxGeometry width="50" height="50" relative="1" as="geometry">
                        <mxPoint x="44.5" y="-60" as="sourcePoint"/>
                        <mxPoint x="44.5" y="-280" as="targetPoint"/>
                    </mxGeometry>
                </mxCell>
                <mxCell id="chwYsZg3FPka-LLPWCqs-21" value="&lt;p style=&quot;line-height: 160%;&quot;&gt;EC2 instances in private subnets fetch softwares / updates etc. via the NAT Gateway&lt;/p&gt;" style="text;strokeColor=none;align=left;fillColor=default;html=1;verticalAlign=middle;whiteSpace=wrap;rounded=0;fontFamily=Montserrat Medium;fontSource=https%3A%2F%2Ffonts.googleapis.com%2Fcss%3Ffamily%3DMontserrat%2BMedium;fontSize=16;" parent="1" vertex="1">
                    <mxGeometry x="-240" y="-220" width="270" height="80" as="geometry"/>
                </mxCell>
                <mxCell id="chwYsZg3FPka-LLPWCqs-23" value="Avaialability Zone" style="text;strokeColor=none;align=center;fillColor=none;html=1;verticalAlign=middle;whiteSpace=wrap;rounded=0;fontFamily=Poppins;fontSource=https%3A%2F%2Ffonts.googleapis.com%2Fcss%3Ffamily%3DPoppins;fontSize=16;fontStyle=1;fontColor=#3399FF;" parent="1" vertex="1">
                    <mxGeometry x="-130" y="-810" width="150" height="30" as="geometry"/>
                </mxCell>
                <mxCell id="chwYsZg3FPka-LLPWCqs-35" style="edgeStyle=orthogonalEdgeStyle;rounded=0;orthogonalLoop=1;jettySize=auto;html=1;" parent="1" source="chwYsZg3FPka-LLPWCqs-26" edge="1">
                    <mxGeometry relative="1" as="geometry">
                        <mxPoint x="465" y="-840" as="targetPoint"/>
                    </mxGeometry>
                </mxCell>
                <mxCell id="chwYsZg3FPka-LLPWCqs-26" value="" style="sketch=0;outlineConnect=0;fontColor=#232F3E;gradientColor=none;fillColor=#4D27AA;strokeColor=none;dashed=0;verticalLabelPosition=bottom;verticalAlign=top;align=center;html=1;fontSize=12;fontStyle=0;aspect=fixed;pointerEvents=1;shape=mxgraph.aws4.internet_gateway;" parent="1" vertex="1">
                    <mxGeometry x="415" y="-630" width="100" height="100" as="geometry"/>
                </mxCell>
                <mxCell id="chwYsZg3FPka-LLPWCqs-27" value="Internet Gateway" style="text;strokeColor=none;align=center;fillColor=none;html=1;verticalAlign=middle;whiteSpace=wrap;rounded=0;fontFamily=Poppins;fontSource=https%3A%2F%2Ffonts.googleapis.com%2Fcss%3Ffamily%3DPoppins;fontSize=16;fontColor=#3399FF;fontStyle=1" parent="1" vertex="1">
                    <mxGeometry x="390" y="-520" width="150" height="30" as="geometry"/>
                </mxCell>
                <mxCell id="chwYsZg3FPka-LLPWCqs-30" value="" style="endArrow=classic;html=1;rounded=0;" parent="1" target="chwYsZg3FPka-LLPWCqs-36" edge="1">
                    <mxGeometry width="50" height="50" relative="1" as="geometry">
                        <mxPoint x="110" y="-370.56" as="sourcePoint"/>
                        <mxPoint x="450" y="-370.56" as="targetPoint"/>
                    </mxGeometry>
                </mxCell>
                <mxCell id="chwYsZg3FPka-LLPWCqs-31" value="&lt;p style=&quot;line-height: 160%;&quot;&gt;Forwards requests from EC2 instances running in private subnets to the Internet Gateway&lt;/p&gt;" style="text;strokeColor=none;align=left;fillColor=default;html=1;verticalAlign=middle;whiteSpace=wrap;rounded=0;fontFamily=Montserrat Medium;fontSource=https%3A%2F%2Ffonts.googleapis.com%2Fcss%3Ffamily%3DMontserrat%2BMedium;fontSize=16;" parent="1" vertex="1">
                    <mxGeometry x="120" y="-350" width="260" height="80" as="geometry"/>
                </mxCell>
                <mxCell id="chwYsZg3FPka-LLPWCqs-32" value="" style="rounded=1;whiteSpace=wrap;html=1;fillColor=none;dashed=1;strokeWidth=2;perimeterSpacing=0;dashPattern=8 8;strokeColor=#B3B3B3;" parent="1" vertex="1">
                    <mxGeometry x="660" y="-840" width="410" height="1600" as="geometry"/>
                </mxCell>
                <mxCell id="chwYsZg3FPka-LLPWCqs-33" value="Avaialability Zone" style="text;strokeColor=none;align=center;fillColor=none;html=1;verticalAlign=middle;whiteSpace=wrap;rounded=0;fontFamily=Poppins;fontSource=https%3A%2F%2Ffonts.googleapis.com%2Fcss%3Ffamily%3DPoppins;fontSize=16;fontStyle=1;fontColor=#3399FF;" parent="1" vertex="1">
                    <mxGeometry x="690" y="-810" width="150" height="30" as="geometry"/>
                </mxCell>
                <mxCell id="chwYsZg3FPka-LLPWCqs-34" value="&lt;p style=&quot;line-height: 160%;&quot;&gt;We can have redundant EC2 instances running here in private subnets and a NAT Gatewayfor &lt;b&gt;&lt;font color=&quot;#ffb366&quot;&gt;higher availability&lt;/font&gt;&lt;/b&gt;.&lt;/p&gt;" style="text;strokeColor=none;align=left;fillColor=none;html=1;verticalAlign=middle;whiteSpace=wrap;rounded=0;fontFamily=Montserrat Medium;fontSource=https%3A%2F%2Ffonts.googleapis.com%2Fcss%3Ffamily%3DMontserrat%2BMedium;fontSize=16;" parent="1" vertex="1">
                    <mxGeometry x="725" y="-55" width="280" height="120" as="geometry"/>
                </mxCell>
                <mxCell id="chwYsZg3FPka-LLPWCqs-38" style="edgeStyle=orthogonalEdgeStyle;rounded=0;orthogonalLoop=1;jettySize=auto;html=1;" parent="1" source="chwYsZg3FPka-LLPWCqs-36" target="chwYsZg3FPka-LLPWCqs-27" edge="1">
                    <mxGeometry relative="1" as="geometry"/>
                </mxCell>
                <mxCell id="chwYsZg3FPka-LLPWCqs-36" value="" style="sketch=0;outlineConnect=0;fontColor=#232F3E;gradientColor=none;fillColor=#4D27AA;strokeColor=none;dashed=0;verticalLabelPosition=bottom;verticalAlign=top;align=center;html=1;fontSize=12;fontStyle=0;aspect=fixed;pointerEvents=1;shape=mxgraph.aws4.route_table;" parent="1" vertex="1">
                    <mxGeometry x="415" y="-418.72" width="100" height="97.44" as="geometry"/>
                </mxCell>
                <mxCell id="chwYsZg3FPka-LLPWCqs-39" value="&lt;p style=&quot;line-height: 160%;&quot;&gt;Route Tables &lt;b&gt;controls the routing logic&lt;/b&gt;, like which instances can send / receive request from / to the internet. It also &lt;b&gt;&lt;font color=&quot;#ff3333&quot;&gt;controls the intercommunication of instances inside the VPC&lt;/font&gt;&lt;/b&gt;.&lt;/p&gt;" style="text;strokeColor=none;align=left;fillColor=default;html=1;verticalAlign=middle;whiteSpace=wrap;rounded=0;fontFamily=Montserrat Medium;fontSource=https%3A%2F%2Ffonts.googleapis.com%2Fcss%3Ffamily%3DMontserrat%2BMedium;fontSize=16;" parent="1" vertex="1">
                    <mxGeometry x="530" y="-445" width="325" height="160" as="geometry"/>
                </mxCell>
                <mxCell id="2" value="Route Table" style="text;strokeColor=none;align=center;fillColor=none;html=1;verticalAlign=middle;whiteSpace=wrap;rounded=0;fontFamily=Poppins;fontSource=https%3A%2F%2Ffonts.googleapis.com%2Fcss%3Ffamily%3DPoppins;fontSize=16;fontColor=#3399FF;fontStyle=1" vertex="1" parent="1">
                    <mxGeometry x="410" y="-310" width="110" height="30" as="geometry"/>
                </mxCell>
            </root>
        </mxGraphModel>
    </diagram>
</mxfile>